<?xml version="1.0" standalone="no"?><!DOCTYPE svg PUBLIC "-//W3C//DTD SVG 1.1//EN" "http://www.w3.org/Graphics/SVG/1.1/DTD/svg11.dtd"><svg t="1743470460845" class="icon" viewBox="0 0 1024 1024" version="1.1" xmlns="http://www.w3.org/2000/svg" p-id="4368" xmlns:xlink="http://www.w3.org/1999/xlink" width="20" height="20"><path d="M884.363636 349.090909H651.636364a69.818182 69.818182 0 0 1-69.818182-69.818182V46.545455h46.545454v232.727272a23.272727 23.272727 0 0 0 23.272728 23.272728h232.727272z" p-id="4369"></path><path d="M592.523636 69.818182L861.090909 322.56V954.181818a3.956364 3.956364 0 0 1-3.025454 0H165.701818A9.774545 9.774545 0 0 1 162.909091 954.181818V70.981818a3.956364 3.956364 0 0 1 3.025454 0h426.589091m18.385455-46.545454H165.701818A48.174545 48.174545 0 0 0 116.363636 69.818182v884.363636a48.174545 48.174545 0 0 0 49.338182 46.545455h692.596364A48.174545 48.174545 0 0 0 907.636364 954.181818V302.545455L610.909091 23.272727z" p-id="4370"></path><path d="M256 488.727273h512v46.545454H256zM256 628.363636h512v46.545455H256zM256 768h512v46.545455H256z" p-id="4371"></path></svg>