<?xml version="1.0" standalone="no"?><!DOCTYPE svg PUBLIC "-//W3C//DTD SVG 1.1//EN" "http://www.w3.org/Graphics/SVG/1.1/DTD/svg11.dtd"><svg t="1743433258157" class="icon" viewBox="0 0 1024 1024" version="1.1" xmlns="http://www.w3.org/2000/svg" p-id="114373" xmlns:xlink="http://www.w3.org/1999/xlink" width="20" height="20"><path d="M511.5904 856.064a20.8896 20.8896 0 0 1-14.7456-6.144l-296.96-297.7792a216.2688 216.2688 0 0 1-65.1264-158.5152 224.8704 224.8704 0 0 1 376.832-166.7072 226.5088 226.5088 0 0 1 151.552-58.9824 225.6896 225.6896 0 0 1 225.6896 225.6896 200.2944 200.2944 0 0 1-65.9456 158.9248l-297.3696 297.3696a20.0704 20.0704 0 0 1-13.9264 6.144zM359.6288 208.896a183.9104 183.9104 0 0 0-183.9104 184.7296 175.3088 175.3088 0 0 0 54.4768 131.072l6.5536 6.9632 274.8416 274.8416 282.624-282.624a160.5632 160.5632 0 0 0 54.0672-130.2528A184.7296 184.7296 0 0 0 663.552 208.896 183.9104 183.9104 0 0 0 532.48 262.9632l-7.3728 7.7824a25.3952 25.3952 0 0 1-14.7456 5.7344 19.6608 19.6608 0 0 1-14.7456-6.5536l-4.096-7.3728A182.6816 182.6816 0 0 0 359.6288 208.896z" p-id="114374" fill="currentColor"></path></svg>