<?xml version="1.0" standalone="no"?><!DOCTYPE svg PUBLIC "-//W3C//DTD SVG 1.1//EN" "http://www.w3.org/Graphics/SVG/1.1/DTD/svg11.dtd"><svg t="1743433080459" class="icon" viewBox="0 0 1024 1024" version="1.1" xmlns="http://www.w3.org/2000/svg" p-id="113233" xmlns:xlink="http://www.w3.org/1999/xlink" width="20" height="20"><path d="M384 629.333333c-99.84 0-298.666667 49.92-298.666667 149.333334V853.333333h597.333334v-74.666666c0-99.413333-198.826667-149.333333-298.666667-149.333334zM185.173333 768c35.84-24.746667 122.453333-53.333333 198.826667-53.333333s162.986667 28.586667 198.826667 53.333333H185.173333zM384 554.666667c82.346667 0 149.333333-66.986667 149.333333-149.333334S466.346667 256 384 256 234.666667 322.986667 234.666667 405.333333 301.653333 554.666667 384 554.666667z m0-213.333334c35.413333 0 64 28.586667 64 64S419.413333 469.333333 384 469.333333s-64-28.586667-64-64S348.586667 341.333333 384 341.333333z m300.373333 290.56c49.493333 35.84 83.626667 83.626667 83.626667 146.773334V853.333333h170.666667v-74.666666c0-86.186667-149.333333-135.253333-254.293334-146.773334zM640 554.666667c82.346667 0 149.333333-66.986667 149.333333-149.333334S722.346667 256 640 256c-23.04 0-44.373333 5.546667-64 14.933333 26.88 37.973333 42.666667 84.48 42.666667 134.4s-15.786667 96.426667-42.666667 134.4c19.626667 9.386667 40.96 14.933333 64 14.933334z" fill="currentColor" p-id="113234"></path></svg>