<?xml version="1.0" standalone="no"?><!DOCTYPE svg PUBLIC "-//W3C//DTD SVG 1.1//EN" "http://www.w3.org/Graphics/SVG/1.1/DTD/svg11.dtd"><svg t="1743427390269" class="icon" viewBox="0 0 1024 1024" version="1.1" xmlns="http://www.w3.org/2000/svg" p-id="97118" xmlns:xlink="http://www.w3.org/1999/xlink" width="20" height="20"><path d="M992 132H32c-16.57 0-30 13.43-30 30v249.71q0 107.12 0.02 200.28L2 862c0 7.96 3.16 15.59 8.79 21.21A29.963 29.963 0 0 0 32 892h960c16.57 0 30-13.43 30-30V162c0-16.57-13.43-30-30-30z m-30 700H62l0.02-220.01Q62 518.82 62 411.71V192h900v640z" fill="#231815" p-id="97119"></path><path d="M421.88 685.33l202.55-157.54c11.16-8.68 11.16-22.89 0-31.57L421.88 338.67c-12.66-9.84-34.29-2.87-34.29 11.05v324.56c0 13.92 21.64 20.89 34.29 11.05z" fill="#231815" p-id="97120"></path></svg>