<?xml version="1.0" standalone="no"?><!DOCTYPE svg PUBLIC "-//W3C//DTD SVG 1.1//EN" "http://www.w3.org/Graphics/SVG/1.1/DTD/svg11.dtd"><svg t="1743405522645" class="icon" viewBox="0 0 1024 1024" version="1.1" xmlns="http://www.w3.org/2000/svg" p-id="5632" id="mx_n_1743405522646" width="20" height="20" xmlns:xlink="http://www.w3.org/1999/xlink"><path d="M909.6192 854.528l-259.7376-259.7376a297.3184 297.3184 0 0 0 62.1056-182.784 298.1888 298.1888 0 0 0-87.9104-212.1216 297.7792 297.7792 0 0 0-212.0704-87.8592 298.1888 298.1888 0 0 0-212.1216 87.8592 297.6256 297.6256 0 0 0-87.8592 212.1216c0 80.0768 31.232 155.4944 87.8592 212.0704a297.6256 297.6256 0 0 0 212.1216 87.9104c66.9696 0 130.56-21.8112 182.6816-61.952l259.6864 259.584a8.192 8.192 0 0 0 11.6224 0l43.6224-43.52a8.192 8.192 0 0 0 0-11.6224z m-339.2-284.16a222.7712 222.7712 0 0 1-158.4128 65.6384 222.7712 222.7712 0 0 1-158.4128-65.5872 222.7712 222.7712 0 0 1-65.5872-158.4128c0-59.8016 23.296-116.1216 65.5872-158.4128a222.7712 222.7712 0 0 1 158.4128-65.5872 222.208 222.208 0 0 1 158.4128 65.5872 222.7712 222.7712 0 0 1 65.536 158.4128 222.6176 222.6176 0 0 1-65.536 158.4128z" fill="currentColor" p-id="5633"></path></svg>